<svg viewBox="0 0 29 30" fill="none" xmlns="http://www.w3.org/2000/svg">
<path fill-rule="evenodd" clip-rule="evenodd" d="M25.5119 16.5085C25.5858 16.0608 25.5858 15.5378 25.5858 15.015C25.5858 14.4921 25.5119 14.0443 25.5119 13.5215L28.6257 11.0573C28.9227 10.8334 28.9965 10.4601 28.7742 10.0867L25.8081 4.93378C25.6596 4.63479 25.215 4.48609 24.9181 4.63479L21.2104 6.12837C20.4689 5.53111 19.5796 5.00817 18.6897 4.63479L18.1705 0.677215C18.0966 0.378945 17.7997 0.0799561 17.4289 0.0799561H11.4967C11.126 0.0799561 10.8291 0.378945 10.7552 0.677215L10.1621 4.63479C9.27209 5.00817 8.45668 5.53104 7.64058 6.12837L3.93295 4.63479C3.56216 4.48609 3.19137 4.63479 3.04296 4.93378L0.0768454 10.0867C-0.0708713 10.3849 0.00288249 10.8334 0.225259 11.0574L3.41389 13.5215C3.41389 14.0443 3.34 14.4921 3.34 15.015C3.34 15.5378 3.41389 15.9856 3.41389 16.5085L0.300059 18.9726C0.00309163 19.1965 -0.0706621 19.5698 0.151575 19.9432L3.11769 25.0961C3.26617 25.3951 3.71079 25.5438 4.00768 25.3951L7.71538 23.9015C8.45689 24.4988 9.34619 25.0217 10.2361 25.3951L10.8292 29.3527C10.9037 29.7261 11.1999 29.95 11.5707 29.95H17.503C17.8737 29.95 18.1706 29.651 18.2445 29.3527L18.8383 25.3951C19.7276 25.0217 20.5437 24.4989 21.3591 23.9015L25.0668 25.3951C25.4375 25.5438 25.8083 25.3951 25.9568 25.0961L28.9229 19.9432C29.0713 19.645 28.9968 19.1965 28.7744 18.9725L25.5119 16.5085V16.5085ZM14.4629 20.2422C11.5706 20.2422 9.27222 17.9277 9.27222 15.015C9.27222 12.1023 11.5706 9.78768 14.4629 9.78768C17.3551 9.78768 19.6536 12.1023 19.6536 15.015C19.6536 17.9277 17.3551 20.2422 14.4629 20.2422V20.2422Z" fill="black" fill-opacity="0.54"/>
</svg>
